<svg width="167" height="167" viewBox="0 0 167 167" fill="none" xmlns="http://www.w3.org/2000/svg">
<path d="M131.54 60.8022C129.265 60.8022 127.42 62.7225 127.42 65.0911V143.411C127.42 151.687 120.951 158.422 113 158.422H22.6599C14.7097 158.422 8.24007 151.687 8.24007 143.411V49.3633C8.24007 41.0869 14.7097 34.3522 22.6599 34.3522H113C115.276 34.3522 117.12 32.4319 117.12 30.0633C117.12 27.6947 115.276 25.7744 113 25.7744H22.6599C10.165 25.7744 0 36.3561 0 49.3633V143.411C0 156.418 10.165 167 22.6599 167H113C125.495 167 135.66 156.418 135.66 143.411V65.0914C135.66 62.7229 133.815 60.8022 131.54 60.8022Z" fill="#132144"/>
<path d="M163.268 3.87713C158.301 -1.29343 150.221 -1.29132 145.258 3.87713L74.688 77.3445C74.5935 77.4428 73.5293 78.5946 73.2536 79.2399L63.481 102.096C62.787 103.719 63.1247 105.618 64.3317 106.873C65.1202 107.694 66.1743 108.129 67.2466 108.129C67.8118 108.129 68.381 108.008 68.9202 107.758L90.8759 97.5845C91.4934 97.2982 92.6015 96.19 92.6967 96.0916L163.268 22.6267C165.674 20.1219 167 16.7923 167 13.2509C167 9.70982 165.674 6.37952 163.268 3.87713ZM157.442 16.5598L86.8705 90.0271C86.8587 90.0397 86.8519 90.0545 86.8404 90.0647L75.372 95.3796L80.4774 83.4409C80.4875 83.4283 80.5014 83.4216 80.5135 83.4093L151.084 9.94236C152.784 8.17235 155.746 8.17446 157.443 9.94411C158.292 10.8258 158.76 12.0007 158.76 13.2509C158.76 14.501 158.292 15.6756 157.442 16.5598Z" fill="#132144"/>
<path d="M157.442 16.5598L86.8705 90.0271C86.8587 90.0397 86.8519 90.0545 86.8404 90.0647L75.372 95.3796L80.4774 83.4409C80.4875 83.4283 80.5014 83.4216 80.5135 83.4093L151.084 9.94236C152.784 8.17235 155.746 8.17446 157.443 9.94411C158.292 10.8258 158.76 12.0007 158.76 13.2509C158.76 14.501 158.292 15.6756 157.442 16.5598Z" fill="#132144"/>
</svg>
