<svg width="167" height="167" viewBox="0 0 167 167" fill="none" xmlns="http://www.w3.org/2000/svg">
<path d="M16.7 0H150.3C152.493 -2.57001e-08 154.665 0.431958 156.691 1.27121C158.717 2.11047 160.558 3.34058 162.109 4.89132C163.659 6.44205 164.89 8.28305 165.729 10.3092C166.568 12.3353 167 14.5069 167 16.7V150.3C167 152.493 166.568 154.665 165.729 156.691C164.89 158.717 163.659 160.558 162.109 162.109C160.558 163.659 158.717 164.89 156.691 165.729C154.665 166.568 152.493 167 150.3 167H16.7C14.5069 167 12.3353 166.568 10.3092 165.729C8.28305 164.89 6.44205 163.659 4.89132 162.109C3.34058 160.558 2.11047 158.717 1.27121 156.691C0.431958 154.665 -2.57001e-08 152.493 0 150.3V16.7C-2.57001e-08 14.5069 0.431958 12.3353 1.27121 10.3092C2.11047 8.28305 3.34058 6.44205 4.89132 4.89132C6.44205 3.34058 8.28305 2.11047 10.3092 1.27121C12.3353 0.431958 14.5069 -2.57001e-08 16.7 0ZM33.4 33.4V66.8H66.8V83.5H50.1V133.6H66.8V116.9H100.2V133.6H116.9V83.5H100.2V66.8H133.6V33.4H100.2V66.8H66.8V33.4H33.4Z" fill="#132144"/>
</svg>
