<svg width="167" height="167" viewBox="0 0 167 167" fill="none" xmlns="http://www.w3.org/2000/svg">
<path d="M64.6486 106.478V99.1762C64.6486 94.7029 65.2737 90.7558 66.5239 87.3351C67.774 83.8486 69.7809 80.5594 72.5445 77.4675C75.308 74.3099 78.9599 71.0865 83.5 67.7973C87.5795 64.9029 90.8366 62.3044 93.2711 60.002C95.7715 57.6996 97.581 55.43 98.6996 53.1934C99.8839 50.8909 100.476 48.2925 100.476 45.398C100.476 41.1221 98.897 37.8658 95.7386 35.6291C92.5803 33.3925 88.1717 32.2742 82.513 32.2742C76.8543 32.2742 71.2285 33.1623 65.6356 34.9384C60.1085 36.7146 54.4826 39.0499 48.7581 41.9444L38 20.3344C44.5799 16.6506 51.7191 13.6903 59.4176 11.4536C67.1161 9.15121 75.5383 8 84.6844 8C98.7654 8 109.655 11.3879 117.354 18.1636C125.118 24.8735 129 33.4254 129 43.8192C129 49.345 128.112 54.1472 126.335 58.2258C124.624 62.2386 121.992 65.9883 118.439 69.4748C114.952 72.8956 110.576 76.5137 105.312 80.3291C101.364 83.2236 98.3377 85.6576 96.2321 87.6311C94.1265 89.6046 92.679 91.5781 91.8894 93.5517C91.1656 95.4594 90.8037 97.7947 90.8037 100.558V106.478H64.6486ZM61.4902 140.225C61.4902 134.041 63.1681 129.7 66.5239 127.2C69.9454 124.7 74.0578 123.45 78.8612 123.45C83.5329 123.45 87.5466 124.7 90.9024 127.2C94.3239 129.7 96.0347 134.041 96.0347 140.225C96.0347 146.146 94.3239 150.422 90.9024 153.053C87.5466 155.684 83.5329 157 78.8612 157C74.0578 157 69.9454 155.684 66.5239 153.053C63.1681 150.422 61.4902 146.146 61.4902 140.225Z" fill="#2A3D6D"/>
</svg>
