<svg width="167" height="167" viewBox="0 0 167 167" fill="none" xmlns="http://www.w3.org/2000/svg">
<g clip-path="url(#clip0_696_168)">
<path d="M100.369 152.107C98.992 152.451 97.588 152.755 96.1944 153.012C92.5514 153.689 90.143 157.193 90.8168 160.839C91.1496 162.633 92.1684 164.127 93.5516 165.103C94.9771 166.106 96.7914 166.559 98.6402 166.215C100.3 165.907 101.972 165.545 103.614 165.135C107.211 164.24 109.403 160.596 108.505 157C107.61 153.401 103.969 151.211 100.369 152.107Z" fill="#2A3D6D"/>
<path d="M150.015 62.1214C150.486 63.5387 151.383 64.6957 152.517 65.4951C154.199 66.6794 156.399 67.0779 158.499 66.3836C162.019 65.2148 163.926 61.4189 162.762 57.9004C162.231 56.2965 161.642 54.6875 161.015 53.1209C159.638 49.6782 155.733 48.0021 152.289 49.3792C148.848 50.7556 147.171 54.6617 148.549 58.1054C149.076 59.4222 149.57 60.7738 150.015 62.1214Z" fill="#2A3D6D"/>
<path d="M122.184 142.522C121 143.304 119.778 144.061 118.546 144.77C115.334 146.623 114.233 150.729 116.086 153.94C116.589 154.814 117.259 155.528 118.03 156.073C120.101 157.531 122.914 157.749 125.255 156.4C126.719 155.555 128.175 154.657 129.585 153.725C132.678 151.682 133.529 147.516 131.485 144.423C129.441 141.328 125.278 140.478 122.184 142.522Z" fill="#2A3D6D"/>
<path d="M166.936 80.872C166.79 77.1665 163.669 74.2824 159.962 74.4271C156.261 74.5732 153.374 77.6953 153.52 81.3993C153.575 82.8155 153.59 84.2529 153.557 85.6676C153.505 87.9913 154.642 90.0627 156.408 91.3077C157.46 92.0486 158.737 92.497 160.121 92.5286C163.827 92.6108 166.898 89.6718 166.98 85.9645C167.017 84.2741 167.003 82.5613 166.936 80.872Z" fill="#2A3D6D"/>
<path d="M148.92 124.861C145.948 122.632 141.745 123.237 139.519 126.203C138.667 127.339 137.77 128.46 136.851 129.541C134.449 132.362 134.788 136.6 137.61 139.004C137.771 139.14 137.933 139.266 138.102 139.383C140.907 141.361 144.806 140.906 147.074 138.245C148.171 136.956 149.241 135.616 150.259 134.26C152.485 131.294 151.883 127.087 148.92 124.861Z" fill="#2A3D6D"/>
<path d="M158.788 100.592C155.25 99.4832 151.483 101.453 150.374 104.99C149.95 106.342 149.48 107.7 148.972 109.03C147.857 111.958 148.925 115.179 151.374 116.906C151.823 117.221 152.317 117.489 152.855 117.692C156.319 119.014 160.198 117.276 161.518 113.811C162.121 112.229 162.68 110.614 163.186 109.007C164.293 105.468 162.325 101.702 158.788 100.592Z" fill="#2A3D6D"/>
<path d="M71.0787 153.072C65.0765 151.995 59.3187 150.159 53.8589 147.6C53.7943 147.566 53.7365 147.528 53.6687 147.497C52.3821 146.891 51.0976 146.243 49.8526 145.565C49.8483 145.56 49.8404 145.557 49.8336 145.554C47.5494 144.296 45.3201 142.904 43.1543 141.379C11.5737 119.133 3.98041 75.3411 26.2282 43.7608C31.0659 36.8963 36.9202 31.1694 43.4469 26.6304C43.5273 26.5744 43.6077 26.5187 43.6874 26.4624C66.6865 10.6153 97.9158 9.54733 122.337 25.8316L117.092 33.4102C115.634 35.5196 116.531 37.0567 119.084 36.827L141.867 34.7872C144.423 34.5575 145.952 32.3465 145.265 29.8781L139.146 7.83425C138.461 5.36299 136.708 5.06719 135.248 7.17623L129.991 14.7727C112.069 2.74204 90.5731 -1.84543 69.2375 1.85427C67.0886 2.22618 64.9699 2.68137 62.8802 3.21124C62.8641 3.21411 62.8512 3.2159 62.8382 3.21877C62.7575 3.23852 62.6756 3.26472 62.597 3.28662C44.199 8.01123 28.147 18.7417 16.6928 34.0517C16.5962 34.1662 16.4968 34.2782 16.4056 34.4028C16.0247 34.9158 15.6467 35.4406 15.2766 35.9654C14.6714 36.8256 14.0747 37.7072 13.5039 38.5889C13.4325 38.6952 13.3779 38.8032 13.3155 38.9105C3.86339 53.5575 -0.695728 70.4908 0.0861424 87.73C0.0879374 87.7868 0.0847065 87.8438 0.0861424 87.902C0.161888 89.586 0.295431 91.2933 0.476719 92.9741C0.486411 93.0825 0.510463 93.1852 0.528771 93.2936C0.716162 94.9837 0.951297 96.6778 1.24602 98.3715C4.2414 115.652 12.3932 131.202 24.6084 143.302C24.6368 143.33 24.6662 143.361 24.6949 143.391C24.705 143.402 24.7161 143.408 24.7258 143.418C28.0077 146.655 31.5774 149.649 35.4211 152.356C45.4798 159.444 56.6805 164.129 68.7094 166.288C72.3592 166.943 75.8457 164.514 76.5005 160.866C77.1549 157.215 74.7275 153.726 71.0787 153.072Z" fill="#2A3D6D"/>
<path d="M79.3803 29.8672C76.3781 29.8672 73.9463 32.3011 73.9463 35.299V89.415L123.44 115C124.236 115.413 125.089 115.607 125.928 115.607C127.894 115.607 129.793 114.536 130.758 112.669C132.135 110.003 131.093 106.728 128.427 105.351L84.8081 82.8003V35.299C84.8078 32.3011 82.3789 29.8672 79.3803 29.8672Z" fill="#2A3D6D"/>
</g>
<defs>
<clipPath id="clip0_696_168">
<rect width="167" height="167" fill="white"/>
</clipPath>
</defs>
</svg>
