<svg width="800" height="800" viewBox="0 0 800 800" fill="none" xmlns="http://www.w3.org/2000/svg">
<rect width="800" height="800" fill="#5865F2"/>
<path d="M595.287 219.291C558.925 202.455 519.939 190.109 479.454 183C474.581 191.979 468.583 204.326 464.459 213.679C421.35 207.319 378.241 207.319 335.881 213.679C331.757 203.952 325.76 191.979 320.886 183C280.026 190.109 241.04 202.455 204.678 219.291C131.205 330.036 111.337 437.788 121.458 544.417C170.191 580.709 217.424 602.783 263.532 617C275.153 601.286 285.274 584.45 293.896 566.866C277.027 560.505 260.908 552.648 245.913 543.669C250.037 540.676 253.786 537.683 257.534 534.315C350.126 577.341 450.589 577.341 542.056 534.315C545.805 537.683 549.928 540.676 553.677 543.669C538.308 552.648 522.188 560.505 505.694 566.866C514.316 584.45 524.812 601.286 536.058 617C582.542 602.409 629.774 580.709 678.507 544.043C690.502 420.952 658.639 313.948 595.287 219.291ZM306.641 478.943C278.901 478.943 256.035 453.128 256.035 421.7C256.035 390.272 278.152 364.457 306.641 364.457C334.756 364.457 357.623 390.272 357.248 421.7C357.248 453.128 334.756 478.943 306.641 478.943ZM493.324 478.943C465.584 478.943 442.717 453.128 442.717 421.7C442.717 390.272 464.834 364.457 493.324 364.457C521.439 364.457 544.305 390.272 543.931 421.7C543.931 453.128 521.814 478.943 493.324 478.943Z" fill="white"/>
</svg>
