<svg width="800" height="800" viewBox="0 0 800 800" fill="none" xmlns="http://www.w3.org/2000/svg">
<rect width="800" height="800" fill="#1D9BF0"/>
<path d="M606.959 292.614C607.276 297.209 607.276 301.805 607.276 306.442C607.276 447.753 499.941 610.727 303.673 610.727V610.642C245.695 610.727 188.921 594.082 140.113 562.699C148.544 563.715 157.017 564.223 165.51 564.245C213.558 564.287 260.232 548.129 298.032 518.376C252.372 517.508 212.332 487.671 198.345 444.111C214.34 447.202 230.82 446.567 246.519 442.268C196.739 432.188 160.925 388.353 160.925 337.445V336.089C175.758 344.369 192.365 348.965 209.353 349.473C162.468 318.068 148.016 255.555 176.328 206.68C230.503 273.492 310.434 314.108 396.239 318.407C387.64 281.264 399.388 242.341 427.109 216.231C470.085 175.741 537.677 177.816 578.076 220.868C601.973 216.146 624.877 207.358 645.837 194.906C637.871 219.661 621.2 240.689 598.93 254.052C620.08 251.553 640.745 245.878 660.204 237.216C645.879 258.732 627.835 277.473 606.959 292.614Z" fill="white"/>
</svg>
