<svg width="800" height="800" viewBox="0 0 800 800" fill="none" xmlns="http://www.w3.org/2000/svg">
<rect width="800" height="800" fill="#FF0000"/>
<path d="M640.805 278.636C634.91 256.855 617.906 239.8 596.107 233.974C566.827 222.679 283.22 217.145 200.95 234.298C179.152 240.188 162.082 257.179 156.252 278.96C143.037 336.891 142.033 462.138 156.576 521.363C162.471 543.144 179.475 560.2 201.274 566.025C259.252 579.359 534.89 581.236 596.431 566.025C618.23 560.135 635.299 543.144 641.129 521.363C655.219 458.254 656.223 340.774 640.805 278.636Z" fill="white"/>
<path d="M482.094 400L349.943 324.269V475.731L482.094 400Z" fill="#FF0000"/>
</svg>
